<svg width="13" height="7" viewBox="0 0 13 7" fill="none" xmlns="http://www.w3.org/2000/svg">
<path d="M0.948 4.69602C1.008 4.51602 1.512 3.78401 2.124 3.94001C2.196 3.95201 0.9 4.86402 0.948 4.69602ZM0.564 4.81602C0.432 5.28402 1.296 4.91201 1.908 4.44401C1.596 5.10401 2.148 5.45201 2.664 5.14001C3.564 4.62401 4.992 3.30401 5.4 3.30401C5.556 3.32801 4.56 4.75602 4.56 4.96002C4.56 5.02002 4.752 5.02001 4.848 4.99601C6.216 3.77201 6.144 3.84402 5.868 4.56402C5.748 4.98402 5.892 5.30801 6.336 5.27201C6.744 5.23601 7.368 4.85202 7.812 4.52801C7.884 4.49202 7.92 4.45601 7.956 4.40802C7.98 4.38401 7.98 4.37202 7.956 4.33601C7.944 4.30002 7.884 4.27601 7.848 4.30001L7.008 4.84002C6.744 4.97202 6.12 5.29602 6.048 4.91201C6 4.68402 6.132 4.38402 6.228 4.20402C6.54 3.62801 6.252 3.61601 5.784 3.91601C5.352 4.20401 5.328 4.27601 5.184 4.40802C6.492 1.85201 4.896 3.29202 2.76 4.84002C2.4 5.10402 1.908 5.16402 2.112 4.56402C2.184 4.37202 2.34 4.08401 2.52 3.90401C2.736 3.68801 2.268 3.52001 1.824 3.62801C1.392 3.73601 0.672 4.44402 0.564 4.81602Z" fill="white"/>
<path d="M8.93034 3.55601C8.53434 3.43601 7.75434 4.04801 7.52634 4.76801C7.49034 4.81601 7.46634 5.02001 7.67034 5.02001C8.07834 4.98401 9.00234 3.88001 9.05034 3.83201C8.51034 4.76801 7.83834 5.90801 8.29434 6.25601C8.82234 6.67601 10.6703 5.39201 11.4263 4.63601C11.5343 4.52801 11.4143 4.42001 11.3423 4.45601C10.8623 4.91201 8.90634 6.40002 8.47434 6.10002C8.07834 5.82402 8.79834 4.62401 9.80634 3.26801C9.84234 3.22001 9.87834 3.18401 9.91434 3.14801C11.0303 2.18801 12.0743 1.32401 12.2063 0.856015C12.2423 0.748015 12.1463 0.640015 12.0383 0.640015C11.7863 0.640015 11.4023 0.916015 11.1623 1.14401C10.5023 1.75601 9.59034 2.90802 9.18234 3.58001C9.11034 3.66401 9.19434 3.65201 8.93034 3.55601ZM7.86234 4.63601C8.10234 4.31201 8.58234 3.91601 8.71434 3.91601C8.28234 4.37201 7.55034 5.05601 7.86234 4.63601ZM10.2623 2.58401C10.5143 2.24801 11.8943 0.820014 11.8943 0.964015C12.0383 0.964015 10.3823 2.64401 10.2623 2.58401Z" fill="white"/>
</svg>
