<svg width="26" height="23" viewBox="0 0 26 23" fill="none" xmlns="http://www.w3.org/2000/svg">
<path d="M6.3 22.104C5.148 22.104 4.092 21.9 3.132 21.492C2.172 21.06 1.404 20.46 0.828 19.692C0.276 18.9 0 17.988 0 16.956C0 15.204 0.54 13.704 1.62 12.456C2.7 11.184 4.116 10.14 5.868 9.324L6.588 9L6.156 8.496C5.94 8.232 5.64 7.908 5.256 7.524C4.872 7.116 4.524 6.648 4.212 6.12C3.924 5.568 3.78 4.944 3.78 4.248C3.78 3.408 4.032 2.664 4.536 2.016C5.064 1.368 5.748 0.875999 6.588 0.539999C7.428 0.179999 8.34 0 9.324 0C10.38 0 11.268 0.216 11.988 0.648C12.732 1.056 13.296 1.584 13.68 2.232C14.064 2.88 14.256 3.54 14.256 4.212C14.28 5.196 13.944 6.012 13.248 6.66C12.576 7.308 11.652 7.848 10.476 8.28L9.864 8.496L10.404 9.108C11.244 9.972 12.024 10.764 12.744 11.484C13.464 12.204 14.172 13.032 14.868 13.968L15.372 14.616L15.948 14.004C16.5 13.452 17.028 12.84 17.532 12.168C18.06 11.496 18.492 10.884 18.828 10.332C19.164 9.756 19.332 9.36 19.332 9.144C19.332 8.928 19.236 8.712 19.044 8.496C18.852 8.28 18.612 8.136 18.324 8.064C18.228 8.016 18.108 7.956 17.964 7.884C17.844 7.788 17.784 7.692 17.784 7.596C17.784 7.38 17.892 7.248 18.108 7.2C18.348 7.152 18.54 7.128 18.684 7.128C18.828 7.128 19.08 7.152 19.44 7.2C19.8 7.224 20.172 7.26 20.556 7.308C20.964 7.332 21.288 7.344 21.528 7.344C21.936 7.344 22.38 7.296 22.86 7.2C23.34 7.104 23.808 7.008 24.264 6.912C24.72 6.792 25.104 6.732 25.416 6.732C25.512 6.732 25.62 6.78 25.74 6.876C25.86 6.948 25.92 7.02 25.92 7.092C25.92 7.26 25.812 7.428 25.596 7.596C25.38 7.764 25.152 7.86 24.912 7.884C24.288 7.956 23.736 8.136 23.256 8.424C22.776 8.688 22.368 8.976 22.032 9.288C21.864 9.408 21.564 9.684 21.132 10.116C20.724 10.548 20.244 11.052 19.692 11.628C19.14 12.18 18.6 12.732 18.072 13.284C17.544 13.836 17.076 14.304 16.668 14.688C16.284 15.072 16.044 15.312 15.948 15.408L16.56 16.272C17.328 17.304 18.072 18.144 18.792 18.792C19.512 19.44 20.304 19.764 21.168 19.764C21.624 19.764 22.092 19.728 22.572 19.656C23.052 19.56 23.52 19.404 23.976 19.188C24.072 19.14 24.18 19.092 24.3 19.044C24.42 18.996 24.54 18.972 24.66 18.972C24.828 18.972 24.948 19.008 25.02 19.08C25.116 19.128 25.164 19.248 25.164 19.44C25.164 19.68 24.9 20.016 24.372 20.448C23.868 20.88 23.232 21.264 22.464 21.6C21.696 21.936 20.904 22.104 20.088 22.104C19.176 22.104 18.396 21.96 17.748 21.672C17.124 21.408 16.548 21 16.02 20.448C15.516 19.872 14.952 19.14 14.328 18.252L13.824 17.496L13.608 17.712C12.864 18.528 12.132 19.272 11.412 19.944C10.692 20.616 9.924 21.144 9.108 21.528C8.292 21.912 7.356 22.104 6.3 22.104ZM7.812 19.404C8.796 19.404 9.684 19.212 10.476 18.828C11.292 18.444 12.096 17.844 12.888 17.028L13.176 16.74L12.708 16.056C12.06 15.12 11.292 14.184 10.404 13.248C9.54 12.312 8.628 11.316 7.668 10.26L7.236 9.756L6.516 10.08C5.652 10.44 4.992 10.908 4.536 11.484C4.104 12.036 3.816 12.636 3.672 13.284C3.528 13.932 3.456 14.58 3.456 15.228C3.456 16.428 3.852 17.424 4.644 18.216C5.46 19.008 6.516 19.404 7.812 19.404ZM9.288 7.812L9.72 7.56C10.296 7.272 10.716 6.804 10.98 6.156C11.244 5.508 11.376 4.836 11.376 4.14C11.376 3.348 11.196 2.64 10.836 2.016C10.476 1.368 9.912 1.044 9.144 1.044C8.52 1.044 7.968 1.26 7.488 1.692C7.008 2.1 6.768 2.604 6.768 3.204C6.768 3.756 6.816 4.236 6.912 4.644C7.032 5.052 7.236 5.448 7.524 5.832C7.812 6.216 8.196 6.66 8.676 7.164L9.288 7.812Z" fill="#414042"/>
</svg>
